<svg width="705" height="136" viewBox="0 0 705 136" fill="none" xmlns="http://www.w3.org/2000/svg">
<path d="M31.433 105.058H70.3356V132.439H1V3.42816H70.3356V30.8089H31.433H30.433V31.8089V52.2018V53.2018H31.433H69.0626V80.5825H31.433H30.433V81.5825V104.058V105.058H31.433Z" stroke="#CDCDCD" stroke-opacity="0.25" stroke-width="2"/>
<path d="M217.627 85.4497C213.831 100.05 206.177 111.889 194.657 121.005L194.657 121.006C182.915 130.313 169.385 134.959 154.027 134.959C135.535 134.959 119.834 128.492 106.866 115.54L106.865 115.54C93.8376 102.54 87.3337 86.6346 87.3337 67.7599C87.3337 48.8849 93.7874 33.0949 106.689 20.1601C119.542 7.39021 135.179 1.01062 153.674 1.01062C177.734 1.01062 196.248 11.0988 209.336 31.3233L209.338 31.3267C213.649 37.9294 216.432 44.5614 217.703 51.2144H185.19C182.301 43.7947 178.271 38.1287 173.062 34.2934C167.695 30.3425 161.155 28.3913 153.498 28.3913C143.098 28.3913 134.489 32.3503 127.745 40.2365L127.742 40.2394C121.313 47.8147 118.103 56.9469 118.103 67.5927C118.103 78.2337 121.31 87.595 127.737 95.2863C134.527 103.456 143.2 107.578 153.661 107.578C160.849 107.578 167.129 105.681 172.458 101.857C177.636 98.1415 181.856 92.6497 185.148 85.4497H217.627Z" stroke="#CDCDCD" stroke-opacity="0.25" stroke-width="2"/>
<path d="M225.24 95.8065V68.9401H271.953V95.8065H225.24Z" stroke="#CDCDCD" stroke-opacity="0.25" stroke-width="2"/>
<path d="M323.266 30.8089H322.266V31.8089V132.452H291.485V31.8089V30.8089H290.485H266.152V3.42816H347.423V30.8089H323.266Z" stroke="#CDCDCD" stroke-opacity="0.25" stroke-width="2"/>
<path d="M393.001 105.058H431.903V132.439H362.568V3.42816H431.903V30.8089H393.001H392.001V31.8089V52.2018V53.2018H393.001H430.631V80.5825H393.001H392.001V81.5825V104.058V105.058H393.001Z" stroke="#CDCDCD" stroke-opacity="0.25" stroke-width="2"/>
<path d="M579.182 85.4497C575.386 100.05 567.732 111.889 556.213 121.005L556.212 121.006C544.471 130.313 530.941 134.959 515.582 134.959C497.091 134.959 481.39 128.492 468.421 115.54L468.42 115.54C455.393 102.54 448.889 86.6346 448.889 67.7599C448.889 48.8848 455.343 33.0949 468.256 20.1602C481.109 7.39023 496.747 1.01062 515.242 1.01062C539.302 1.01062 557.816 11.0988 570.903 31.3233L570.906 31.3267C575.216 37.9294 578 44.5614 579.271 51.2144H546.758C543.869 43.7947 539.839 38.1287 534.63 34.2934C529.263 30.3425 522.722 28.3913 515.065 28.3913C504.666 28.3913 496.057 32.3503 489.313 40.2365L489.31 40.2394C482.881 47.8147 479.67 56.9469 479.67 67.5927C479.67 78.2337 482.878 87.595 489.304 95.2863C496.094 103.456 504.768 107.578 515.229 107.578C522.416 107.578 528.697 105.681 534.026 101.857C539.204 98.1415 543.424 92.6497 546.716 85.4497H579.182Z" stroke="#CDCDCD" stroke-opacity="0.25" stroke-width="2"/>
<path d="M393.001 105.058H431.903V132.439H362.568V3.42816H431.903V30.8089H393.001H392.001V31.8089V52.2018V53.2018H393.001H430.631V80.5825H393.001H392.001V81.5825V104.058V105.058H393.001Z" stroke="#CDCDCD" stroke-opacity="0.25" stroke-width="2"/>
<path d="M579.182 85.4497C575.386 100.05 567.732 111.889 556.213 121.005L556.212 121.006C544.471 130.313 530.941 134.959 515.582 134.959C497.091 134.959 481.39 128.492 468.421 115.54L468.42 115.54C455.393 102.54 448.889 86.6346 448.889 67.7599C448.889 48.8848 455.343 33.0949 468.256 20.1602C481.109 7.39023 496.747 1.01062 515.242 1.01062C539.302 1.01062 557.816 11.0988 570.903 31.3233L570.906 31.3267C575.216 37.9294 578 44.5614 579.271 51.2144H546.758C543.869 43.7947 539.839 38.1287 534.63 34.2934C529.263 30.3425 522.722 28.3913 515.065 28.3913C504.666 28.3913 496.057 32.3503 489.313 40.2365L489.31 40.2394C482.881 47.8147 479.67 56.9469 479.67 67.5927C479.67 78.2337 482.878 87.595 489.304 95.2863C496.094 103.456 504.768 107.578 515.229 107.578C522.416 107.578 528.697 105.681 534.026 101.857C539.204 98.1415 543.424 92.6497 546.716 85.4497H579.182Z" stroke="#CDCDCD" stroke-opacity="0.25" stroke-width="2"/>
<path d="M673.218 51.6875V3.42816H704V132.452H673.218V81.0811V80.0811H672.218H630.198H629.198V81.0811V132.452H598.417V3.42816H629.198V51.6875V52.6875H630.198H672.218H673.218V51.6875Z" stroke="#CDCDCD" stroke-opacity="0.25" stroke-width="2"/>
</svg>
